/* XPM */
static char *BichoUp[] = {
/* columns rows colors chars-per-pixel */
"32 29 2 1 ",
"  c #000000",
". c #003333",
/* pixels */
"           .........            ",
"           .........            ",
"           .........            ",
"           .........            ",
"           .........            ",
"           .........            ",
"           .........            ",
"      ...................       ",
"      ...................       ",
"      ...................       ",
"      ...................       ",
"      ...................       ",
"      ...................       ",
"      ...................       ",
"         ...........            ",
"         ...........            ",
"         ...........            ",
"         ...........            ",
"         ...........            ",
"         ...........            ",
"        .............           ",
"        .............           ",
"        .............           ",
"        .............           ",
"        .............           ",
"        .............           ",
"        .............           ",
"        .............           ",
"        .............           "
};

/* XPM */
static char *BichoDown[] = {
/* columns rows colors chars-per-pixel */
"32 29 2 1 ",
"  c #000000",
". c #FFFFFF",
/* pixels */
"           .........            ",
"           .........            ",
"           .........            ",
"           .........            ",
"           .........            ",
"           .........            ",
"           .........            ",
"      ...................       ",
"      ...................       ",
"      ...................       ",
"      ...................       ",
"      ...................       ",
"      ...................       ",
"      ...................       ",
"         ...........            ",
"         ...........            ",
"         ...........            ",
"         ...........            ",
"         ...........            ",
"         ...........            ",
"        .............           ",
"        .............           ",
"        .............           ",
"        .............           ",
"        .............           ",
"        .............           ",
"        .............           ",
"        .............           ",
"        .............           "
};

/* XPM */
static char *BichoLeft[] = {
/* columns rows colors chars-per-pixel */
"32 29 2 1 ",
"  c #000000",
". c #FF0033",
/* pixels */
"           .........            ",
"           .........            ",
"           .........            ",
"           .........            ",
"           .........            ",
"           .........            ",
"           .........            ",
"      ...................       ",
"      ...................       ",
"      ...................       ",
"      ...................       ",
"      ...................       ",
"      ...................       ",
"      ...................       ",
"         ...........            ",
"         ...........            ",
"         ...........            ",
"         ...........            ",
"         ...........            ",
"         ...........            ",
"        .............           ",
"        .............           ",
"        .............           ",
"        .............           ",
"        .............           ",
"        .............           ",
"        .............           ",
"        .............           ",
"        .............           "
};

/* XPM */
static char *BichoRight[] = {
/* columns rows colors chars-per-pixel */
"76 88 26 1 ",
"  c #000000",
". c #151210",
"X c #1A1A1A",
"o c #2F1700",
"O c #3E1E00",
"+ c #252525",
"@ c #542900",
"# c #7A3B00",
"$ c #A92C00",
"8 c #BB3100",
"& c #FF0000",
"* c #984A00",
"= c #B25700",
"- c #AC631D",
"; c #B6661B",
": c #9D5D20",
"> c #A56020",
", c #FF4300",
"< c #FF7C00",
"1 c #E77911",
"2 c #FF7E7E",
"3 c #FFA34B",
"4 c #FFA34D",
"5 c #00FFC7",
"6 c #FFCB9A",
"7 c #CBFFF3",
/* pixels */
"                                    &&22                                    ",
"                                    &&22                                    ",
"                                  &&&&&&22                                  ",
"                                  &&&&&&22                                  ",
"                                  &&&&&&22                                  ",
"                                  &&&&&&22                                  ",
"                                ++++&&&&++++                                ",
"                                ++++&&&&++++                                ",
"                            <<<<<<<<++++66666666                            ",
"                            <<<<<<<<++++66666666                            ",
"                        <<<<<<##@@@@<<44@@@@##666666                        ",
"                        <<<<<<##@@@@<<44@@@@##666666                        ",
"                        <<@@@@@@##<<####44##@@@@@@66                        ",
"                        <<@@@@@@##<<####44##@@@@@@66                        ",
"                      <<<<##@@@@@@<<@@@@44@@@@@@##6666                      ",
"                      <<<<##@@@@@@<<@@@@44@@@@@@##6666                      ",
"                    <<<<@@@@####<<########44####@@@@6666                    ",
"                    <<<<@@@@####<<########44####@@@@6666                    ",
"                    <<##@@@@@@@@<<@@@@@@@@44@@@@@@@@##66                    ",
"                    <<##@@@@@@@@<<@@@@@@@@44@@@@@@@@##66                    ",
"                  <<<<@@########<<@@@@@@@@44########@@6666                  ",
"                  <<<<@@########<<@@@@@@@@44########@@6666                  ",
"                  <<@@@@@@@@@@<<############44@@@@@@@@@@66                  ",
"                  <<@@@@@@@@@@<<############44@@@@@@@@@@66                  ",
"                  <<######@@@@<<@@@@@@@@@@@@44@@@@######66                  ",
"                  <<######@@@@<<@@@@@@@@@@@@44@@@@######66                  ",
"                <<<<<<<<<<####<<############44####<<<<<<<<66                ",
"                <<<<<<<<<<####<<############44####<<<<<<<<66                ",
"                  <<<<<<<<<<<<<<<<<<<<<<<<<<44<<<<<<444466                  ",
"                  <<<<<<<<<<<<<<<<<<<<<<<<<<44<<<<<<444466                  ",
"                <<<<<<<<<<<<<<<<<<<<444444444466666666666666                ",
"                <<<<<<<<<<<<<<<<<<<<444444444466666666666666                ",
"                <<<<oooooooooooo$$oooooooooooooo$$oo$$oo6666                ",
"                <<<<oooooooooooo$$oooooooooooooo$$oo$$oo6666                ",
"                <<ooooooOOOOOOOO$$OOOOOO<<OOOOOO$$OO$$oooo66                ",
"                <<ooooooOOOOOOOO$$OOOOOO<<OOOOOO$$OO$$oooo66                ",
"                <<$$$$$$$$$$$$$$$$OOOOOO<<<<OOOO$$OO$$oooo66    77  77      ",
"                <<$$$$$$$$$$$$$$$$OOOOOO<<<<OOOO$$OO$$oooo66    77  77      ",
"              <<<<ooOOOO$$@@@@@@@@@@@@<<88**<<<<88888888884466,,77,,55,,7777",
"              <<<<ooOOOO$$@@@@@@@@@@@@<<88**<<<<88888888884466,,77,,55,,7777",
"              <<<<ooOOOO$$@@;;@@;;@@<<<<**88<<8888888888884466,,55,,55,,5577",
"              <<<<ooOOOO$$@@;;@@;;@@<<<<**88<<8888888888884466,,55,,55,,5577",
"              <<<<ooOO;;$$@@;;;;;;@@@@;;<<<<@@@@@@@@OOOOoo4466  55  77      ",
"              <<<<ooOO;;$$@@;;;;;;@@@@;;<<<<@@@@@@@@OOOOoo4466  55  77      ",
"              <<<<ooOOOO;;;;@@11@@;;;;@@@@<<::XX::XXXXOOoo4444              ",
"              <<<<ooOOOO;;;;@@11@@;;;;@@@@<<::XX::XXXXOOoo4444              ",
"              <<<<ooOOOO;;@@@@11@@@@;;@@::XX::::::XX::XXXX4444          ++++",
"              <<<<ooOOOO;;@@@@11@@@@;;@@::XX::::::XX::XXXX4444          ++++",
"              <<<<oo;;;;$$@@<<<<11@@@@;;XX::XXXXXX::XXXXXX<<44XX++++++++++++",
"              <<<<oo;;;;$$@@<<<<11@@@@;;XX::XXXXXX::XXXXXX<<44XX++++++++++++",
"              <<<<oo@@;;1111<<;;111111::::XX11XX11XX::::XX<<44XXXX++++++++++",
"              <<<<oo@@;;1111<<;;111111::::XX11XX11XX::::XX<<44XXXX++++++++++",
"              <<<<oo;;;;$$@@<<1111@@@@;;::XXXX**XXXX::XXXX<<44XXXXXXXXXX++++",
"              <<<<oo;;;;$$@@<<1111@@@@;;::XXXX**XXXX::XXXX<<44XXXXXXXXXX++++",
"              <<<<ooOOOO;;@@..11..@@;;::::XX11XX11XX::::XX<<<<XXXXXXXXXX++++",
"              <<<<ooOOOO;;@@..11..@@;;::::XX11XX11XX::::XX<<<<XXXXXXXXXX++++",
"              <<<<ooOOOO;;;;..11..;;;;@@XX--XXXXXX::XXXXXX<<<<XXXXXXXXXX++++",
"              <<<<ooOOOO;;;;..11..;;;;@@XX--XXXXXX::XXXXXX<<<<XXXXXXXXXX++++",
"              <<<<ooOO;;$$@@;;;;;;@@@@;;>>XX::::::XX::XXXX<<<<          ++++",
"              <<<<ooOO;;$$@@;;;;;;@@@@;;>>XX::::::XX::XXXX<<<<          ++++",
"              <<<<$$$$$$$$@@;;..;;@@@@@@@@$$::XX::XXXXOOoo<<<<              ",
"              <<<<$$$$$$$$@@;;..;;@@@@@@@@$$::XX::XXXXOOoo<<<<              ",
"              <<<<ooOOOO$$@@......@@@@@@$$@@@@@@@@@@OOOOoo<<<<              ",
"              <<<<ooOOOO$$@@......@@@@@@$$@@@@@@@@@@OOOOoo<<<<              ",
"              <<<<==<<<<<<<<<<<<<<<<====<<<<<<<<<<<<<<<<==<<<<              ",
"              <<<<==<<<<<<<<<<<<<<<<====<<<<<<<<<<<<<<<<==<<<<              ",
"              <<<<==<<<<<<<<<<<<<<<<3333<<<<<<<<<<<<<<<<==<<<<              ",
"              <<<<==<<<<<<<<<<<<<<<<3333<<<<<<<<<<<<<<<<==<<<<              ",
"              <<<<==<<<<<<<<<<<<<<<<==3333<<<<<<<<<<<<<<==<<<<              ",
"              <<<<==<<<<<<<<<<<<<<<<==3333<<<<<<<<<<<<<<==<<<<              ",
"              <<<<========================================<<<<              ",
"              <<<<========================================<<<<              ",
"              <<<<========================================<<<<              ",
"              <<<<========================================<<<<              ",
"              <<<<==<<<<<<<<<<<<<<<<====<<<<<<<<<<<<<<<<==<<<<              ",
"              <<<<==<<<<<<<<<<<<<<<<====<<<<<<<<<<<<<<<<==<<<<              ",
"              <<<<==<<<<<<<<<<<<<<<<====<<<<<<<<<<<<<<<<==<<<<              ",
"              <<<<==<<<<<<<<<<<<<<<<====<<<<<<<<<<<<<<<<==<<<<              ",
"                  ==++++++++++++++++++++++++++++++++++++==                  ",
"                  ==++++++++++++++++++++++++++++++++++++==                  ",
"                  ++..............        ..............++                  ",
"                  ++..............        ..............++                  ",
"                ++......++++++......    ......++++++......++                ",
"                ++......++++++......    ......++++++......++                ",
"                ++..................    ..................++                ",
"                ++..................    ..................++                ",
"                  ++++++++++++++++++++++++++++++++++++++++                  ",
"                  ++++++++++++++++++++++++++++++++++++++++                  "
};


/* XPM */
static char *BichoUpperLeft[] = {
/* columns rows colors chars-per-pixel */
"32 29 2 1 ",
"  c #000000",
". c #FF0000",
/* pixels */
"           .........            ",
"           .........            ",
"           .........            ",
"           .........            ",
"           .........            ",
"           .........            ",
"           .........            ",
"      ...................       ",
"      ...................       ",
"      ...................       ",
"      ...................       ",
"      ...................       ",
"      ...................       ",
"      ...................       ",
"         ...........            ",
"         ...........            ",
"         ...........            ",
"         ...........            ",
"         ...........            ",
"         ...........            ",
"        .............           ",
"        .............           ",
"        .............           ",
"        .............           ",
"        .............           ",
"        .............           ",
"        .............           ",
"        .............           ",
"        .............           "
};

/* XPM */
static char *BichoUpperRight[] = {
/* columns rows colors chars-per-pixel */
"32 29 2 1 ",
"  c #000000",
". c #00FF00",
/* pixels */
"           .........            ",
"           .........            ",
"           .........            ",
"           .........            ",
"           .........            ",
"           .........            ",
"           .........            ",
"      ...................       ",
"      ...................       ",
"      ...................       ",
"      ...................       ",
"      ...................       ",
"      ...................       ",
"      ...................       ",
"         ...........            ",
"         ...........            ",
"         ...........            ",
"         ...........            ",
"         ...........            ",
"         ...........            ",
"        .............           ",
"        .............           ",
"        .............           ",
"        .............           ",
"        .............           ",
"        .............           ",
"        .............           ",
"        .............           ",
"        .............           "
};

/* XPM */
static char *BichoLowerLeft[] = {
/* columns rows colors chars-per-pixel */
"32 29 2 1 ",
"  c #000000",
". c #00FF00",
/* pixels */
"           .........            ",
"           .........            ",
"           .........            ",
"           .........            ",
"           .........            ",
"           .........            ",
"           .........            ",
"      ...................       ",
"      ...................       ",
"      ...................       ",
"      ...................       ",
"      ...................       ",
"      ...................       ",
"      ...................       ",
"         ...........            ",
"         ...........            ",
"         ...........            ",
"         ...........            ",
"         ...........            ",
"         ...........            ",
"        .............           ",
"        .............           ",
"        .............           ",
"        .............           ",
"        .............           ",
"        .............           ",
"        .............           ",
"        .............           ",
"    .....................       "
};

/* XPM */
static char *BichoLowerRight[] = {
/* columns rows colors chars-per-pixel */
"32 29 2 1 ",
"  c #000000",
". c #00FF00",
/* pixels */
"           .........            ",
"           .........            ",
"           .........            ",
"           .........            ",
"           .........            ",
"           .........            ",
"           .........            ",
"      ...................       ",
"      ...................       ",
"      ...................       ",
"      ...................       ",
"      ...................       ",
"      ...................       ",
"      ...................       ",
"         ...........            ",
"         ...........            ",
"         ...........            ",
"         ...........            ",
"         ...........            ",
"         ...........            ",
"        .............           ",
"        .............           ",
"        .............           ",
"        .............           ",
"        .............           ",
"        .............           ",
"        .............           ",
"        .............           ",
"    .....................       "
};

/* XPM */
static char *BichoStationary[] = {
/* columns rows colors chars-per-pixel */
"32 29 2 1 ",
"  c #000000",
". c #FFF0FF",
/* pixels */
"           .........            ",
"           .........            ",
"           .........            ",
"           .........            ",
"           .........            ",
"           .........            ",
"           .........            ",
"      ...................       ",
"      ...................       ",
"      ...................       ",
"      ...................       ",
"      ...................       ",
"      ...................       ",
"      ...................       ",
"         ...........            ",
"         ...........            ",
"         ...........            ",
"         ...........            ",
"         ...........            ",
"         ...........            ",
"        .............           ",
"        .............           ",
"        .............           ",
"        .............           ",
"        .............           ",
"        .............           ",
"        .............           ",
"        .............           ",
"        .............           "
};
