/* XPM */
static char *BichoUp[] = {
/* columns rows colors chars-per-pixel */
"32 29 2 1 ",
"  c #000000",
". c #003333",
/* pixels */
"           .........            ",
"           .........            ",
"           .........            ",
"           .........            ",
"           .........            ",
"           .........            ",
"           .........            ",
"      ...................       ",
"      ...................       ",
"      ...................       ",
"      ...................       ",
"      ...................       ",
"      ...................       ",
"      ...................       ",
"         ...........            ",
"         ...........            ",
"         ...........            ",
"         ...........            ",
"         ...........            ",
"         ...........            ",
"        .............           ",
"        .............           ",
"        .............           ",
"        .............           ",
"        .............           ",
"        .............           ",
"        .............           ",
"        .............           ",
"        .............           "
};

/* XPM */
static char *BichoDown[] = {
/* columns rows colors chars-per-pixel */
"32 29 2 1 ",
"  c #000000",
". c #FF3300",
/* pixels */
"           .........            ",
"           .........            ",
"           .........            ",
"           .........            ",
"           .........            ",
"           .........            ",
"           .........            ",
"      ...................       ",
"      ...................       ",
"      ...................       ",
"      ...................       ",
"      ...................       ",
"      ...................       ",
"      ...................       ",
"         ...........            ",
"         ...........            ",
"         ...........            ",
"         ...........            ",
"         ...........            ",
"         ...........            ",
"        .............           ",
"        .............           ",
"        .............           ",
"        .............           ",
"        .............           ",
"        .............           ",
"        .............           ",
"        .............           ",
"        .............           "
};

/* XPM */
static char *BichoLeft[] = {
/* columns rows colors chars-per-pixel */
"32 29 2 1 ",
"  c #000000",
". c #FF0033",
/* pixels */
"           .........            ",
"           .........            ",
"           .........            ",
"           .........            ",
"           .........            ",
"           .........            ",
"           .........            ",
"      ...................       ",
"      ...................       ",
"      ...................       ",
"      ...................       ",
"      ...................       ",
"      ...................       ",
"      ...................       ",
"         ...........            ",
"         ...........            ",
"         ...........            ",
"         ...........            ",
"         ...........            ",
"         ...........            ",
"        .............           ",
"        .............           ",
"        .............           ",
"        .............           ",
"        .............           ",
"        .............           ",
"        .............           ",
"        .............           ",
"        .............           "
};

/* XPM */
static char *BichoRight[] = {
/* columns rows colors chars-per-pixel */
"32 29 2 1 ",
"  c #000000",
". c #0000FF",
/* pixels */
"           .........            ",
"           .........            ",
"           .........            ",
"           .........            ",
"           .........            ",
"           .........            ",
"           .........            ",
"      ...................       ",
"      ...................       ",
"      ...................       ",
"      ...................       ",
"      ...................       ",
"      ...................       ",
"      ...................       ",
"         ...........            ",
"         ...........            ",
"         ...........            ",
"         ...........            ",
"         ...........            ",
"         ...........            ",
"        .............           ",
"        .............           ",
"        .............           ",
"        .............           ",
"        .............           ",
"        .............           ",
"        .............           ",
"        .............           ",
"        .............           "
};

/* XPM */
static char *BichoUpperLeft[] = {
/* columns rows colors chars-per-pixel */
"32 29 2 1 ",
"  c #000000",
". c #FF0000",
/* pixels */
"           .........            ",
"           .........            ",
"           .........            ",
"           .........            ",
"           .........            ",
"           .........            ",
"           .........            ",
"      ...................       ",
"      ...................       ",
"      ...................       ",
"      ...................       ",
"      ...................       ",
"      ...................       ",
"      ...................       ",
"         ...........            ",
"         ...........            ",
"         ...........            ",
"         ...........            ",
"         ...........            ",
"         ...........            ",
"        .............           ",
"        .............           ",
"        .............           ",
"        .............           ",
"        .............           ",
"        .............           ",
"        .............           ",
"        .............           ",
"        .............           "
};

/* XPM */
static char *BichoUpperRight[] = {
/* columns rows colors chars-per-pixel */
"32 29 2 1 ",
"  c #000000",
". c #00FF00",
/* pixels */
"           .........            ",
"           .........            ",
"           .........            ",
"           .........            ",
"           .........            ",
"           .........            ",
"           .........            ",
"      ...................       ",
"      ...................       ",
"      ...................       ",
"      ...................       ",
"      ...................       ",
"      ...................       ",
"      ...................       ",
"         ...........            ",
"         ...........            ",
"         ...........            ",
"         ...........            ",
"         ...........            ",
"         ...........            ",
"        .............           ",
"        .............           ",
"        .............           ",
"        .............           ",
"        .............           ",
"        .............           ",
"        .............           ",
"        .............           ",
"        .............           "
};

/* XPM */
static char *BichoLowerLeft[] = {
/* columns rows colors chars-per-pixel */
"32 29 2 1 ",
"  c #000000",
". c #00FF00",
/* pixels */
"           .........            ",
"           .........            ",
"           .........            ",
"           .........            ",
"           .........            ",
"           .........            ",
"           .........            ",
"      ...................       ",
"      ...................       ",
"      ...................       ",
"      ...................       ",
"      ...................       ",
"      ...................       ",
"      ...................       ",
"         ...........            ",
"         ...........            ",
"         ...........            ",
"         ...........            ",
"         ...........            ",
"         ...........            ",
"        .............           ",
"        .............           ",
"        .............           ",
"        .............           ",
"        .............           ",
"        .............           ",
"        .............           ",
"        .............           ",
"    .....................       "
};

/* XPM */
static char *BichoLowerRight[] = {
/* columns rows colors chars-per-pixel */
"32 29 2 1 ",
"  c #000000",
". c #00FF00",
/* pixels */
"           .........            ",
"           .........            ",
"           .........            ",
"           .........            ",
"           .........            ",
"           .........            ",
"           .........            ",
"      ...................       ",
"      ...................       ",
"      ...................       ",
"      ...................       ",
"      ...................       ",
"      ...................       ",
"      ...................       ",
"         ...........            ",
"         ...........            ",
"         ...........            ",
"         ...........            ",
"         ...........            ",
"         ...........            ",
"        .............           ",
"        .............           ",
"        .............           ",
"        .............           ",
"        .............           ",
"        .............           ",
"        .............           ",
"        .............           ",
"    .....................       "
};

/* XPM */
static char *BichoStationary[] = {
/* columns rows colors chars-per-pixel */
"32 29 2 1 ",
"  c #000000",
". c #FFF0FF",
/* pixels */
"           .........            ",
"           .........            ",
"           .........            ",
"           .........            ",
"           .........            ",
"           .........            ",
"           .........            ",
"      ...................       ",
"      ...................       ",
"      ...................       ",
"      ...................       ",
"      ...................       ",
"      ...................       ",
"      ...................       ",
"         ...........            ",
"         ...........            ",
"         ...........            ",
"         ...........            ",
"         ...........            ",
"         ...........            ",
"        .............           ",
"        .............           ",
"        .............           ",
"        .............           ",
"        .............           ",
"        .............           ",
"        .............           ",
"        .............           ",
"        .............           "
};
