/* XPM */
static char *Crossbow[] = {
/* columns rows colors chars-per-pixel */
"81 111 9 1 ",
"  c #000000",
". c #5C361D",
"X c #6F6F6F",
"o c #A44000",
"O c #B76F3C",
"+ c #FFB800",
"@ c #CF997F",
"# c #FFE9AF",
"$ c #C0C0C0",
/* pixels */
"                                                            ###ooooooooo         ",
"                                                            ###ooooooooo         ",
"                                                            ###ooooooooo         ",
"                                                      ######   ooooooooo         ",
"                                                      ######   ooooooooo         ",
"                                                      ######   ooooooooo         ",
"                                                ######      ooooooooo            ",
"                                                ######      ooooooooo            ",
"                                                ######      ooooooooo            ",
"                                          ######            ooooooooo            ",
"                                          ######            ooooooooo            ",
"                                          ######            ooooooooo            ",
"                                    ######                  ooooooooo            ",
"                                    ######                  ooooooooo            ",
"                                    ######                  ooooooooo            ",
"                                 ###                        ooooooooo            ",
"                                 ###                        ooooooooo            ",
"                                 ###                        ooooooooo            ",
"                           ######                              ooooooooo         ",
"                           ######                              ooooooooo         ",
"                           ######                              ooooooooo         ",
"                     ######                                    ooooooooo         ",
"                     ######                                    ooooooooo         ",
"                     ######                                    ooooooooo         ",
"               ######                                          ooooooooo         ",
"               ######                                          ooooooooo         ",
"               ######                                          ooooooooo         ",
"            ###                                                   ooooooooo      ",
"            ###                                                   ooooooooo      ",
"            ###                                                   ooooooooo      ",
"         ###+++                                                   ooooooooo      ",
"         ###+++                                                   ooooooooo      ",
"         ###+++                                                   ooooooooo      ",
"      ###+++++++++                                                oooooooooooo   ",
"      ###+++++++++                                                oooooooooooo   ",
"      ###+++++++++                                                oooooooooooo   ",
"   ###+++XXXXXXXXX+++                                       OOOOOOOOOooooooooo   ",
"   ###+++XXXXXXXXX+++                                       OOOOOOOOOooooooooo   ",
"   ###+++XXXXXXXXX+++                                       OOOOOOOOOooooooooo   ",
"###+++XXX   XXX   XXX+++                           OOOOOOOOOOOOOOOOOOOOOooooooooo",
"###+++XXX   XXX   XXX+++                           OOOOOOOOOOOOOOOOOOOOOooooooooo",
"###+++XXX   XXX   XXX+++                           OOOOOOOOOOOOOOOOOOOOOooooooooo",
"++++++XXXXXXXXXOOOOOOOOOOOOOOOOOOOOOOOOOOOOOOOOOOOOOOOOOOOOOOOOOOOOOOOOOooooooooo",
"++++++XXXXXXXXXOOOOOOOOOOOOOOOOOOOOOOOOOOOOOOOOOOOOOOOOOOOOOOOOOOOOOOOOOooooooooo",
"++++++XXXXXXXXXOOOOOOOOOOOOOOOOOOOOOOOOOOOOOOOOOOOOOOOOOOOOOOOOOOOOOOOOOooooooooo",
"###+++XXX   OOOOOO............................................................ooo",
"###+++XXX   OOOOOO............................................................ooo",
"###+++XXX   OOOOOO............................................................ooo",
"###   +++XXXOOO...$$$OOOOOOOOOOOOOOOOOOOOOOOOOOOOOOOOOOOOOOOOOOOOOOOO$$$OOOoooooo",
"###   +++XXXOOO...$$$OOOOOOOOOOOOOOOOOOOOOOOOOOOOOOOOOOOOOOOOOOOOOOOO$$$OOOoooooo",
"###   +++XXXOOO...$$$OOOOOOOOOOOOOOOOOOOOOOOOOOOOOOOOOOOOOOOOOOOOOOOO$$$OOOoooooo",
"###      +++OOO...$$$$$$..........................................$$$$$$$$$...ooo",
"###      +++OOO...$$$$$$..........................................$$$$$$$$$...ooo",
"###      +++OOO...$$$$$$..........................................$$$$$$$$$...ooo",
"###         OOO...@@@@@@@@@@@@@@@@@@@@@@@@@@@@@@@@@@@@@@@@@@@@@@@@@@@$$$$$$$$$ooo",
"###         OOO...@@@@@@@@@@@@@@@@@@@@@@@@@@@@@@@@@@@@@@@@@@@@@@@@@@@$$$$$$$$$ooo",
"###         OOO...@@@@@@@@@@@@@@@@@@@@@@@@@@@@@@@@@@@@@@@@@@@@@@@@@@@$$$$$$$$$ooo",
"###      +++OOO...$$$$$$..........................................$$$$$$$$$...ooo",
"###      +++OOO...$$$$$$..........................................$$$$$$$$$...ooo",
"###      +++OOO...$$$$$$..........................................$$$$$$$$$...ooo",
"###   +++XXXOOO...$$$OOOOOOOOOOOOOOOOOOOOOOOOOOOOOOOOOOOOOOOOOOOOOOOO$$$OOOoooooo",
"###   +++XXXOOO...$$$OOOOOOOOOOOOOOOOOOOOOOOOOOOOOOOOOOOOOOOOOOOOOOOO$$$OOOoooooo",
"###   +++XXXOOO...$$$OOOOOOOOOOOOOOOOOOOOOOOOOOOOOOOOOOOOOOOOOOOOOOOO$$$OOOoooooo",
"###+++XXX   OOOOOO............................................................ooo",
"###+++XXX   OOOOOO............................................................ooo",
"###+++XXX   OOOOOO............................................................ooo",
"++++++XXXXXXXXXOOOOOOOOOOOOOOOOOOOOOOOOOOOOOOOOOOOOOOOOOOOOOOOOOOOOOOOOOooooooooo",
"++++++XXXXXXXXXOOOOOOOOOOOOOOOOOOOOOOOOOOOOOOOOOOOOOOOOOOOOOOOOOOOOOOOOOooooooooo",
"++++++XXXXXXXXXOOOOOOOOOOOOOOOOOOOOOOOOOOOOOOOOOOOOOOOOOOOOOOOOOOOOOOOOOooooooooo",
"###+++XXX   XXX   XXX+++                           OOOOOOOOOOOOOOOOOOOOOooooooooo",
"###+++XXX   XXX   XXX+++                           OOOOOOOOOOOOOOOOOOOOOooooooooo",
"###+++XXX   XXX   XXX+++                           OOOOOOOOOOOOOOOOOOOOOooooooooo",
"   ###+++XXXXXXXXX+++                                       OOOOOOOOOoooooooooooo",
"   ###+++XXXXXXXXX+++                                       OOOOOOOOOoooooooooooo",
"   ###+++XXXXXXXXX+++                                       OOOOOOOOOoooooooooooo",
"      ###+++++++++                                                oooooooooooo   ",
"      ###+++++++++                                                oooooooooooo   ",
"      ###+++++++++                                                oooooooooooo   ",
"         ###+++                                                   oooooooooooo   ",
"         ###+++                                                   oooooooooooo   ",
"         ###+++                                                   oooooooooooo   ",
"            ###                                                   ooooooooo      ",
"            ###                                                   ooooooooo      ",
"            ###                                                   ooooooooo      ",
"               ######                                          oooooooooooo      ",
"               ######                                          oooooooooooo      ",
"               ######                                          oooooooooooo      ",
"                     ######                                    ooooooooo         ",
"                     ######                                    ooooooooo         ",
"                     ######                                    ooooooooo         ",
"                           ######                              ooooooooo         ",
"                           ######                              ooooooooo         ",
"                           ######                              ooooooooo         ",
"                                 ###                        oooooooooooo         ",
"                                 ###                        oooooooooooo         ",
"                                 ###                        oooooooooooo         ",
"                                    ######                  ooooooooo            ",
"                                    ######                  ooooooooo            ",
"                                    ######                  ooooooooo            ",
"                                          ######            ooooooooo            ",
"                                          ######            ooooooooo            ",
"                                          ######            ooooooooo            ",
"                                                ######      ooooooooo            ",
"                                                ######      ooooooooo            ",
"                                                ######      ooooooooo            ",
"                                                      ######   ooooooooo         ",
"                                                      ######   ooooooooo         ",
"                                                      ######   ooooooooo         ",
"                                                            ###ooooooooo         ",
"                                                            ###ooooooooo         ",
"                                                            ###ooooooooo         "
};

/* XPM */
static char *Cannon[] = {
/* columns rows colors chars-per-pixel */
"87 51 9 1 ",
"  c #000000",
". c #703713",
"X c #46545D",
"o c #B46634",
"O c #E8B458",
"+ c #707F88",
"@ c #95928A",
"# c #B9DFFF",
"$ c #C7C7C2",
/* pixels */
"            OOO         OOO                                                            ",
"            OOO         OOO                                                            ",
"            OOO         OOO                                                            ",
"         OOO###OOO   OOO###OOO                                                         ",
"         OOO###OOO   OOO###OOO                                                         ",
"         OOO###OOO   OOO###OOO                                                         ",
"      ...OOO###OOO...OOO###OOO............                                             ",
"      ...OOO###OOO...OOO###OOO............                                             ",
"      ...OOO###OOO...OOO###OOO............                                             ",
"   ...oooOOO###OOOoooOOO###OOOooo@@@ooo@@@......                                       ",
"   ...oooOOO###OOOoooOOO###OOOooo@@@ooo@@@......                                       ",
"   ...oooOOO###OOOoooOOO###OOOooo@@@ooo@@@......                                       ",
"...oooXXXOOOOOOOOOXXXOOOOOOOOOooo@@@ooo@@@ooo@@@...                                    ",
"...oooXXXOOOOOOOOOXXXOOOOOOOOOooo@@@ooo@@@ooo@@@...                                    ",
"...oooXXXOOOOOOOOOXXXOOOOOOOOOooo@@@ooo@@@ooo@@@...                                    ",
"...@@@XXX@@@OOO@@@@@@@@@OOO@@@XXXXXXXXXXXXXXXXXXXXXXXXXXXXXXXXXXXX               XXXXXX",
"...@@@XXX@@@OOO@@@@@@@@@OOO@@@XXXXXXXXXXXXXXXXXXXXXXXXXXXXXXXXXXXX               XXXXXX",
"...@@@XXX@@@OOO@@@@@@@@@OOO@@@XXXXXXXXXXXXXXXXXXXXXXXXXXXXXXXXXXXX               XXXXXX",
"...oooXXX@@@OOO+++++++++@@@+++++++++++++++++++++++++++++++++++++++XXXXXXXXXXXXXXX+++XXX",
"...oooXXX@@@OOO+++++++++@@@+++++++++++++++++++++++++++++++++++++++XXXXXXXXXXXXXXX+++XXX",
"...oooXXX@@@OOO+++++++++@@@+++++++++++++++++++++++++++++++++++++++XXXXXXXXXXXXXXX+++XXX",
"...oooXXX@@@+++$$$$$$$$$+++$$$$$$$$$$$$$$$$$$$$$$$$$$$$$$$$$$$$$$$+++++++++++++++$$$XXX",
"...oooXXX@@@+++$$$$$$$$$+++$$$$$$$$$$$$$$$$$$$$$$$$$$$$$$$$$$$$$$$+++++++++++++++$$$XXX",
"...oooXXX@@@+++$$$$$$$$$+++$$$$$$$$$$$$$$$$$$$$$$$$$$$$$$$$$$$$$$$+++++++++++++++$$$XXX",
"...@@@XXX@@@+++$$$$$$$$$$$$$$$$$$$$$$$$$$$$$$$$$$$$$$$$$$$$$$$$$$$$$$$$$$$$$$$$$$$$$XXX",
"...@@@XXX@@@+++$$$$$$$$$$$$$$$$$$$$$$$$$$$$$$$$$$$$$$$$$$$$$$$$$$$$$$$$$$$$$$$$$$$$$XXX",
"...@@@XXX@@@+++$$$$$$$$$$$$$$$$$$$$$$$$$$$$$$$$$$$$$$$$$$$$$$$$$$$$$$$$$$$$$$$$$$$$$XXX",
"...oooXXX@@@+++$$$$$$$$$+++$$$$$$$$$$$$$$$$$$$$$$$$$$$$$$$$$$$$$$$+++++++++++++++$$$XXX",
"...oooXXX@@@+++$$$$$$$$$+++$$$$$$$$$$$$$$$$$$$$$$$$$$$$$$$$$$$$$$$+++++++++++++++$$$XXX",
"...oooXXX@@@+++$$$$$$$$$+++$$$$$$$$$$$$$$$$$$$$$$$$$$$$$$$$$$$$$$$+++++++++++++++$$$XXX",
"...oooXXX@@@OOO+++++++++@@@+++++++++++++++++++++++++++++++++++++++XXXXXXXXXXXXXXX+++XXX",
"...oooXXX@@@OOO+++++++++@@@+++++++++++++++++++++++++++++++++++++++XXXXXXXXXXXXXXX+++XXX",
"...oooXXX@@@OOO+++++++++@@@+++++++++++++++++++++++++++++++++++++++XXXXXXXXXXXXXXX+++XXX",
"...@@@XXX@@@OOO@@@@@@@@@OOO@@@XXXXXXXXXXXXXXXXXXXXXXXXXXXXXXXXXXXX               XXXXXX",
"...@@@XXX@@@OOO@@@@@@@@@OOO@@@XXXXXXXXXXXXXXXXXXXXXXXXXXXXXXXXXXXX               XXXXXX",
"...@@@XXX@@@OOO@@@@@@@@@OOO@@@XXXXXXXXXXXXXXXXXXXXXXXXXXXXXXXXXXXX               XXXXXX",
"...oooXXXOOOOOOOOOXXXOOOOOOOOOooo@@@ooo@@@ooo@@@...                                    ",
"...oooXXXOOOOOOOOOXXXOOOOOOOOOooo@@@ooo@@@ooo@@@...                                    ",
"...oooXXXOOOOOOOOOXXXOOOOOOOOOooo@@@ooo@@@ooo@@@...                                    ",
"   ...oooOOO###OOOoooOOO###OOOooo@@@ooo@@@......                                       ",
"   ...oooOOO###OOOoooOOO###OOOooo@@@ooo@@@......                                       ",
"   ...oooOOO###OOOoooOOO###OOOooo@@@ooo@@@......                                       ",
"      ...OOO###OOO...OOO###OOO............                                             ",
"      ...OOO###OOO...OOO###OOO............                                             ",
"      ...OOO###OOO...OOO###OOO............                                             ",
"         OOO###OOO   OOO###OOO                                                         ",
"         OOO###OOO   OOO###OOO                                                         ",
"         OOO###OOO   OOO###OOO                                                         ",
"            OOO         OOO                                                            ",
"            OOO         OOO                                                            ",
"            OOO         OOO                                                            "
};

