/* XPM */
static char *Weapon_R[] = {
/* columns rows colors chars-per-pixel */
"93 27 5 1 ",
"  c #331900",
". c #734200",
"X c #D29400",
"o c #52BAA8",
"O c #000000",
/* pixels */
"OOOOOOOOOOOOOOOOOOOOOOOOOOOOOOOOOOOOOOO   OOOOOOOOOOOOOOOOOOOOOOOOOOOOOOOOOOOOOOOOOO   OOOOOO",
"OOOOOOOOOOOOOOOOOOOOOOOOOOOOOOOOOOOOOOO   OOOOOOOOOOOOOOOOOOOOOOOOOOOOOOOOOOOOOOOOOO   OOOOOO",
"OOOOOOOOOOOOOOOOOOOOOOOOOOOOOOOOOOOOOOO   OOOOOOOOOOOOOOOOOOOOOOOOOOOOOOOOOOOOOOOOOO   OOOOOO",
"OOOOOOOOOOOOOOOOOOOOOOOOOOOOOOOOOOOOOOO                                                   OOO",
"OOOOOOOOOOOOOOOOOOOOOOOOOOOOOOOOOOOOOOO                                                   OOO",
"OOOOOOOOOOOOOOOOOOOOOOOOOOOOOOOOOOOOOOO                                                   OOO",
"OOOOOOOOOOOOOOOOOOOOOOOOOOOOOOOOOOOOOOO   ...XXXXXXXXX....................................   ",
"OOOOOOOOOOOOOOOOOOOOOOOOOOOOOOOOOOOOOOO   ...XXXXXXXXX....................................   ",
"OOOOOOOOOOOOOOOOOOOOOOOOOOOOOOOOOOOOOOO   ...XXXXXXXXX....................................   ",
"OOOOOOOOOOOOOOOOOOOOOOOOOOOOOOOOOOOOOOO   ..........................................      OOO",
"OOOOOOOOOOOOOOOOOOOOOOOOOOOOOOOOOOOOOOO   ..........................................      OOO",
"OOOOOOOOOOOOOOOOOOOOOOOOOOOOOOOOOOOOOOO   ..........................................      OOO",
"OOOOOOOOOOOOOOOOOOOOOOOOOOOOOOOOOOOO   ............XXX      XXX      XXX      XXX   OOOOOOOOO",
"OOOOOOOOOOOOOOOOOOOOOOOOOOOOOOOOOOOO   ............XXX      XXX      XXX      XXX   OOOOOOOOO",
"OOOOOOOOOOOOOOOOOOOOOOOOOOOOOOOOOOOO   ............XXX      XXX      XXX      XXX   OOOOOOOOO",
"OOOOOOOOOOOOOOOOOOOOOOOOOOOOOOOOOOOO   .........   XXXXXXXXXXXXXXXXXXXXXXXXXXXXXXOOOOOOOOOOOO",
"OOOOOOOOOOOOOOOOOOOOOOOOOOOOOOOOOOOO   .........   XXXXXXXXXXXXXXXXXXXXXXXXXXXXXXOOOOOOOOOOOO",
"OOOOOOOOOOOOOOOOOOOOOOOOOOOOOOOOOOOO   .........   XXXXXXXXXXXXXXXXXXXXXXXXXXXXXXOOOOOOOOOOOO",
"OOOOOOOOOOOOOOOOOOOOOOOOOOOOOOOOOOOO   ......   OOOXXXooooooXXXooooooXXXooooooXXXOOOOOOOOOOOO",
"OOOOOOOOOOOOOOOOOOOOOOOOOOOOOOOOOOOO   ......   OOOXXXooooooXXXooooooXXXooooooXXXOOOOOOOOOOOO",
"OOOOOOOOOOOOOOOOOOOOOOOOOOOOOOOOOOOO   ......   OOOXXXooooooXXXooooooXXXooooooXXXOOOOOOOOOOOO",
"OOOOOOOOOOOOOOOOOOOOOOOOOOOOOOOOOOOO   ......   OOOOOOXXXXXXXXXXXXXXXXXXXXXXXXOOOOOOOOOOOOOOO",
"OOOOOOOOOOOOOOOOOOOOOOOOOOOOOOOOOOOO   ......   OOOOOOXXXXXXXXXXXXXXXXXXXXXXXXOOOOOOOOOOOOOOO",
"OOOOOOOOOOOOOOOOOOOOOOOOOOOOOOOOOOOO   ......   OOOOOOXXXXXXXXXXXXXXXXXXXXXXXXOOOOOOOOOOOOOOO",
"OOOOOOOOOOOOOOOOOOOOOOOOOOOOOOOOOOOOOOO      OOOOOOOOOOOOOOOOOOOOOOOOOOOOOOOOOOOOOOOOOOOOOOOO",
"OOOOOOOOOOOOOOOOOOOOOOOOOOOOOOOOOOOOOOO      OOOOOOOOOOOOOOOOOOOOOOOOOOOOOOOOOOOOOOOOOOOOOOOO",
"OOOOOOOOOOOOOOOOOOOOOOOOOOOOOOOOOOOOOOO      OOOOOOOOOOOOOOOOOOOOOOOOOOOOOOOOOOOOOOOOOOOOOOOO"
};

/* XPM */
static char *Weapon_L[] = {
/* columns rows colors chars-per-pixel */
"93 27 5 1 ",
"  c #331900",
". c #734200",
"X c #D29400",
"o c #52BAA8",
"O c #000000",
/* pixels */
"OOOOOO   OOOOOOOOOOOOOOOOOOOOOOOOOOOOOOOOOOOOOOOOOO   OOOOOOOOOOOOOOOOOOOOOOOOOOOOOOOOOOOOOOO",
"OOOOOO   OOOOOOOOOOOOOOOOOOOOOOOOOOOOOOOOOOOOOOOOOO   OOOOOOOOOOOOOOOOOOOOOOOOOOOOOOOOOOOOOOO",
"OOOOOO   OOOOOOOOOOOOOOOOOOOOOOOOOOOOOOOOOOOOOOOOOO   OOOOOOOOOOOOOOOOOOOOOOOOOOOOOOOOOOOOOOO",
"OOO                                                   OOOOOOOOOOOOOOOOOOOOOOOOOOOOOOOOOOOOOOO",
"OOO                                                   OOOOOOOOOOOOOOOOOOOOOOOOOOOOOOOOOOOOOOO",
"OOO                                                   OOOOOOOOOOOOOOOOOOOOOOOOOOOOOOOOOOOOOOO",
"   ....................................XXXXXXXXX...   OOOOOOOOOOOOOOOOOOOOOOOOOOOOOOOOOOOOOOO",
"   ....................................XXXXXXXXX...   OOOOOOOOOOOOOOOOOOOOOOOOOOOOOOOOOOOOOOO",
"   ....................................XXXXXXXXX...   OOOOOOOOOOOOOOOOOOOOOOOOOOOOOOOOOOOOOOO",
"OOO      ..........................................   OOOOOOOOOOOOOOOOOOOOOOOOOOOOOOOOOOOOOOO",
"OOO      ..........................................   OOOOOOOOOOOOOOOOOOOOOOOOOOOOOOOOOOOOOOO",
"OOO      ..........................................   OOOOOOOOOOOOOOOOOOOOOOOOOOOOOOOOOOOOOOO",
"OOOOOOOOO   XXX      XXX      XXX      XXX............   OOOOOOOOOOOOOOOOOOOOOOOOOOOOOOOOOOOO",
"OOOOOOOOO   XXX      XXX      XXX      XXX............   OOOOOOOOOOOOOOOOOOOOOOOOOOOOOOOOOOOO",
"OOOOOOOOO   XXX      XXX      XXX      XXX............   OOOOOOOOOOOOOOOOOOOOOOOOOOOOOOOOOOOO",
"OOOOOOOOOOOOXXXXXXXXXXXXXXXXXXXXXXXXXXXXXX   .........   OOOOOOOOOOOOOOOOOOOOOOOOOOOOOOOOOOOO",
"OOOOOOOOOOOOXXXXXXXXXXXXXXXXXXXXXXXXXXXXXX   .........   OOOOOOOOOOOOOOOOOOOOOOOOOOOOOOOOOOOO",
"OOOOOOOOOOOOXXXXXXXXXXXXXXXXXXXXXXXXXXXXXX   .........   OOOOOOOOOOOOOOOOOOOOOOOOOOOOOOOOOOOO",
"OOOOOOOOOOOOXXXooooooXXXooooooXXXooooooXXXOOO   ......   OOOOOOOOOOOOOOOOOOOOOOOOOOOOOOOOOOOO",
"OOOOOOOOOOOOXXXooooooXXXooooooXXXooooooXXXOOO   ......   OOOOOOOOOOOOOOOOOOOOOOOOOOOOOOOOOOOO",
"OOOOOOOOOOOOXXXooooooXXXooooooXXXooooooXXXOOO   ......   OOOOOOOOOOOOOOOOOOOOOOOOOOOOOOOOOOOO",
"OOOOOOOOOOOOOOOXXXXXXXXXXXXXXXXXXXXXXXXOOOOOO   ......   OOOOOOOOOOOOOOOOOOOOOOOOOOOOOOOOOOOO",
"OOOOOOOOOOOOOOOXXXXXXXXXXXXXXXXXXXXXXXXOOOOOO   ......   OOOOOOOOOOOOOOOOOOOOOOOOOOOOOOOOOOOO",
"OOOOOOOOOOOOOOOXXXXXXXXXXXXXXXXXXXXXXXXOOOOOO   ......   OOOOOOOOOOOOOOOOOOOOOOOOOOOOOOOOOOOO",
"OOOOOOOOOOOOOOOOOOOOOOOOOOOOOOOOOOOOOOOOOOOOOOOO      OOOOOOOOOOOOOOOOOOOOOOOOOOOOOOOOOOOOOOO",
"OOOOOOOOOOOOOOOOOOOOOOOOOOOOOOOOOOOOOOOOOOOOOOOO      OOOOOOOOOOOOOOOOOOOOOOOOOOOOOOOOOOOOOOO",
"OOOOOOOOOOOOOOOOOOOOOOOOOOOOOOOOOOOOOOOOOOOOOOOO      OOOOOOOOOOOOOOOOOOOOOOOOOOOOOOOOOOOOOOO"
};

