/* XPM */
static char *WordClosest[] = {
/* columns rows colors chars-per-pixel */
"84 15 2 1 ",
"  c #000001",
". c #000000",
/* pixels */
"...      ...   ............      ......         ...         ...         ...         ",
"...      ...   ............      ......         ...         ...         ...         ",
"...      ...   ............      ......         ...         ...         ...         ",
"   .........   .........   ......   ...   .........   .........   ............   ...",
"   .........   .........   ......   ...   .........   .........   ............   ...",
"   .........   .........   ......   ...   .........   .........   ............   ...",
"   .........   .........   ......   ......   ......      .........   .........   ...",
"   .........   .........   ......   ......   ......      .........   .........   ...",
"   .........   .........   ......   ......   ......      .........   .........   ...",
"   .........   .........   ......   .........   ...   ...............   ......   ...",
"   .........   .........   ......   .........   ...   ...............   ......   ...",
"   .........   .........   ......   .........   ...   ...............   ......   ...",
"...      ...         ......      ......         ...         ...         ......   ...",
"...      ...         ......      ......         ...         ...         ......   ...",
"...      ...         ......      ......         ...         ...         ......   ..."
};

/* XPM */
static char *WordDamage[] = {
/* columns rows colors chars-per-pixel */
"87 15 2 1 ",
"  c #000001",
". c #000000",
/* pixels */
"         .........      ......   .........   ......      .........         ...         ",
"         .........      ......   .........   ......      .........         ...         ",
"         .........      ......   .........   ......      .........         ...         ",
"   ......   ...   ......   ...      ...      ...   ......   ...   ............   ......",
"   ......   ...   ......   ...      ...      ...   ......   ...   ............   ......",
"   ......   ...   ......   ...      ...      ...   ......   ...   ............   ......",
"   ......   ...   ......   ...   ...   ...   ...   ......   ...   ...      ...      ...",
"   ......   ...   ......   ...   ...   ...   ...   ......   ...   ...      ...      ...",
"   ......   ...   ......   ...   ...   ...   ...   ......   ...   ...      ...      ...",
"   ......   ...            ...   ...   ...   ...            ...   ......   ...   ......",
"   ......   ...            ...   ...   ...   ...            ...   ......   ...   ......",
"   ......   ...            ...   ...   ...   ...            ...   ......   ...   ......",
"         ......   ......   ...   .........   ...   ......   ......         ...         ",
"         ......   ......   ...   .........   ...   ......   ......         ...         ",
"         ......   ......   ...   .........   ...   ......   ......         ...         "
};

/* XPM */
static char *WordFirst[] = {
/* columns rows colors chars-per-pixel */
"54 15 2 1 ",
"  c #000001",
". c #000000",
/* pixels */
"         ...   ...         ......         ...         ",
"         ...   ...         ......         ...         ",
"         ...   ...         ......         ...         ",
"   .........   ...   ......   ...   ............   ...",
"   .........   ...   ......   ...   ............   ...",
"   .........   ...   ......   ...   ............   ...",
"      ......   ...   ......   ......   .........   ...",
"      ......   ...   ......   ......   .........   ...",
"      ......   ...   ......   ......   .........   ...",
"   .........   ...         ............   ......   ...",
"   .........   ...         ............   ......   ...",
"   .........   ...         ............   ......   ...",
"   .........   ...   ......   ...         ......   ...",
"   .........   ...   ......   ...         ......   ...",
"   .........   ...   ......   ...         ......   ..."
};

/* XPM */
static char *WordLast[] = {
/* columns rows colors chars-per-pixel */
"48 15 2 1 ",
"  c #000001",
". c #000000",
/* pixels */
"   ............      ......         ...         ",
"   ............      ......         ...         ",
"   ............      ......         ...         ",
"   .........   ......   ...   ............   ...",
"   .........   ......   ...   ............   ...",
"   .........   ......   ...   ............   ...",
"   .........   ......   ......   .........   ...",
"   .........   ......   ......   .........   ...",
"   .........   ......   ......   .........   ...",
"   .........            .........   ......   ...",
"   .........            .........   ......   ...",
"   .........            .........   ......   ...",
"         ...   ......   ...         ......   ...",
"         ...   ......   ...         ......   ...",
"         ...   ......   ...         ......   ..."
};

/* XPM */
static char *WordLevel[] = {
/* columns rows colors chars-per-pixel */
"57 15 2 1 ",
"  c #000001",
". c #000000",
/* pixels */
"   .........         ...   ...   ...         ...   ......",
"   .........         ...   ...   ...         ...   ......",
"   .........         ...   ...   ...         ...   ......",
"   .........   .........   ...   ...   .........   ......",
"   .........   .........   ...   ...   .........   ......",
"   .........   .........   ...   ...   .........   ......",
"   .........      ......   ...   ...      ......   ......",
"   .........      ......   ...   ...      ......   ......",
"   .........      ......   ...   ...      ......   ......",
"   .........   .........   ...   ...   .........   ......",
"   .........   .........   ...   ...   .........   ......",
"   .........   .........   ...   ...   .........   ......",
"         ...         ......   ......         ...         ",
"         ...         ......   ......         ...         ",
"         ...         ......   ......         ...         "
};

/* XPM */
static char *WordTargetting[] = {
/* columns rows colors chars-per-pixel */
"126 15 2 1 ",
"  c #000001",
". c #000000",
/* pixels */
"         ......      ......         .........         ...         ...         ...         ...   ...   ......   ......         ",
"         ......      ......         .........         ...         ...         ...         ...   ...   ......   ......         ",
"         ......      ......         .........         ...         ...         ...         ...   ...   ......   ......         ",
"...   ......   ......   ...   ......   ...   ............   ............   .........   ......   ...      ...   ...   .........",
"...   ......   ......   ...   ......   ...   ............   ............   .........   ......   ...      ...   ...   .........",
"...   ......   ......   ...   ......   ...   ............   ............   .........   ......   ...      ...   ...   .........",
"...   ......   ......   ...   ......   ...   ...      ...      .........   .........   ......   ...            ...   ...      ",
"...   ......   ......   ...   ......   ...   ...      ...      .........   .........   ......   ...            ...   ...      ",
"...   ......   ......   ...   ......   ...   ...      ...      .........   .........   ......   ...            ...   ...      ",
"...   ......            ...         ......   ......   ...   ............   .........   ......   ...   ...      ...   ......   ",
"...   ......            ...         ......   ......   ...   ............   .........   ......   ...   ...      ...   ......   ",
"...   ......            ...         ......   ......   ...   ............   .........   ......   ...   ...      ...   ......   ",
"...   ......   ......   ...   ......   ......         ...         ......   .........   ......   ...   ......   ......         ",
"...   ......   ......   ...   ......   ......         ...         ......   .........   ......   ...   ......   ......         ",
"...   ......   ......   ...   ......   ......         ...         ......   .........   ......   ...   ......   ......         "
};
